<svg
  width="16"
  height="16"
  viewBox="0 0 16 16"
  fill="none"
  xmlns="http://www.w3.org/2000/svg"
>
  <path
    d="M6.35533 7.43336C6.24259 7.54611 6.15317 7.67999 6.0922 7.82732C6.03123 7.97466 5.9999 8.13257 6 8.29202V10H7.71867C8.04067 10 8.35 9.87202 8.578 9.64402L13.6447 4.57469C13.7576 4.46198 13.8473 4.3281 13.9084 4.1807C13.9696 4.03329 14.0011 3.87528 14.0011 3.71569C14.0011 3.5561 13.9696 3.39809 13.9084 3.25069C13.8473 3.10328 13.7576 2.9694 13.6447 2.85669L13.144 2.35602C13.0313 2.24294 12.8974 2.15322 12.7499 2.092C12.6024 2.03078 12.4443 1.99927 12.2847 1.99927C12.125 1.99927 11.9669 2.03078 11.8194 2.092C11.672 2.15322 11.5381 2.24294 11.4253 2.35602L6.35533 7.43336Z"
    stroke="white"
    stroke-width="1.5"
    stroke-linecap="round"
    stroke-linejoin="round"
  />
  <path
    d="M14 8C14 10.8287 14 12.2427 13.1213 13.1213C12.2427 14 10.828 14 8 14C5.172 14 3.75733 14 2.87867 13.1213C2 12.2427 2 10.828 2 8C2 5.172 2 3.75733 2.87867 2.87867C3.75733 2 5.172 2 8 2"
    stroke="white"
    stroke-width="1.5"
    stroke-linecap="round"
    stroke-linejoin="round"
  />
</svg>
