<svg width="10" height="10" viewBox="0 0 10 10" fill="none" xmlns="http://www.w3.org/2000/svg">
<g clipPath="url(#clip0_75438_6616)">
<path d="M0.625 4.29647V7.22802M5.02232 1.85352V3.31929M4.04514 1.85352H5.9995M1.60218 5.76225H0.625M2.09077 4.29647H3.06796L4.04514 3.31929H5.69755C5.78827 3.31934 5.87718 3.34464 5.95432 3.39236C6.03147 3.44008 6.09381 3.50833 6.13435 3.58948L6.84184 5.00346C6.88238 5.08461 6.94472 5.15286 7.02187 5.20058C7.09901 5.2483 7.18792 5.27361 7.27864 5.27365H7.95387V4.29647H8.93105C9.06063 4.29647 9.18491 4.34795 9.27654 4.43958C9.36817 4.53121 9.41964 4.65548 9.41964 4.78506V7.71661C9.41964 7.84619 9.36817 7.97047 9.27654 8.0621C9.18491 8.15373 9.06063 8.2052 8.93105 8.2052H7.95387V7.22802H6.4881V8.2052C6.4881 8.33478 6.43662 8.45906 6.34499 8.55069C6.25336 8.64232 6.12909 8.69379 5.9995 8.69379H4.30654C4.22612 8.69381 4.14694 8.67397 4.07603 8.63604C4.00511 8.59811 3.94466 8.54327 3.90003 8.47637L3.06796 7.22802H2.09077V4.29647Z" stroke="currentColor" strokeWidth="0.622457" strokeLinecap="round" strokeLinejoin="round"/>
</g>
<defs>
<clipPath id="clip0_75438_6616">
<rect width="10" height="10" fill="white"/>
</clipPath>
</defs>
</svg>
