<svg width="29" height="29" viewBox="0 0 29 29" fill="none" xmlns="http://www.w3.org/2000/svg">
<path fill-rule="evenodd" clip-rule="evenodd" d="M28.8 14.496C28.8 6.48 22.3488 0 14.4 0C6.4512 0 0 6.4896 0 14.496C0 21.7056 5.2704 27.7056 12.1536 28.8V18.672H8.496V14.496H12.144V11.3088C12.144 7.6704 14.304 5.6736 17.5872 5.6736C19.1616 5.6736 20.8128 5.952 20.8128 5.952V9.504H18.9888C17.2032 9.504 16.6464 10.6272 16.6464 11.7696V14.4864H20.64L20.0064 18.672H16.6464V28.8C20.042 28.2499 23.1305 26.5079 25.3578 23.8865C27.5851 21.2651 28.8055 17.9359 28.8 14.496Z" fill="#C2C9C8"/>
</svg>
