<svg width="10" height="10" viewBox="0 0 10 10" fill="none" xmlns="http://www.w3.org/2000/svg">
<path d="M5 7.98828C5.35156 7.98828 5.65267 7.86621 5.90332 7.62207C6.15397 7.37793 6.2793 7.08333 6.2793 6.73828C6.2793 6.64714 6.25 6.5153 6.19141 6.34277C6.13281 6.17025 5.98633 5.92773 5.75195 5.61523C5.63477 5.45898 5.52572 5.32552 5.4248 5.21484C5.32389 5.10417 5.27344 5.04557 5.27344 5.03906L5 4.75586L4.72656 5.03906C4.72656 5.04557 4.67611 5.10417 4.5752 5.21484C4.47428 5.32552 4.36523 5.45898 4.24805 5.61523C4.01367 5.92773 3.86719 6.17025 3.80859 6.34277C3.75 6.5153 3.7207 6.64714 3.7207 6.73828C3.7207 7.08333 3.84603 7.37793 4.09668 7.62207C4.34733 7.86621 4.64844 7.98828 5 7.98828ZM4.83398 6.04492C4.86003 6.00586 4.8877 5.96842 4.91699 5.93262C4.94629 5.89681 4.97396 5.86263 5 5.83008C5.02604 5.86263 5.05371 5.89681 5.08301 5.93262C5.1123 5.96842 5.13997 6.00586 5.16602 6.04492C5.35482 6.29883 5.46549 6.47624 5.49805 6.57715C5.5306 6.67806 5.54687 6.73177 5.54687 6.73828C5.54687 6.88802 5.49316 7.01497 5.38574 7.11914C5.27832 7.22331 5.14974 7.27539 5 7.27539C4.85026 7.27539 4.72168 7.22331 4.61426 7.11914C4.50684 7.01497 4.45312 6.88802 4.45312 6.73828C4.45312 6.73177 4.4694 6.67806 4.50195 6.57715C4.5345 6.47624 4.64518 6.29883 4.83398 6.04492ZM8.42773 3.63281L6.92383 2.16797C6.81966 2.0638 6.70085 1.98405 6.56738 1.92871C6.43392 1.87337 6.29557 1.8457 6.15234 1.8457H4.50195V1.13281C4.50195 0.9375 4.43034 0.769856 4.28711 0.629883C4.14388 0.489909 3.97135 0.419922 3.76953 0.419922H3.04687C2.84505 0.419922 2.67253 0.489909 2.5293 0.629883C2.38607 0.769856 2.31445 0.9375 2.31445 1.13281V1.8457C2.01497 1.85872 1.7627 1.9694 1.55762 2.17773C1.35254 2.38607 1.25 2.63346 1.25 2.91992V8.50586C1.25 8.80534 1.35742 9.05924 1.57227 9.26758C1.78711 9.47591 2.04427 9.58008 2.34375 9.58008H7.65625C7.95573 9.58008 8.21289 9.47591 8.42773 9.26758C8.64258 9.05924 8.75 8.80534 8.75 8.50586V4.39453C8.75 4.2513 8.72233 4.11458 8.66699 3.98438C8.61165 3.85417 8.5319 3.73698 8.42773 3.63281ZM3.04687 1.13281H3.76953V1.8457H3.04687V1.13281ZM8.01758 8.50586C8.01758 8.60352 7.98177 8.68815 7.91016 8.75977C7.83854 8.83138 7.75391 8.86719 7.65625 8.86719H2.34375C2.24609 8.86719 2.16146 8.83138 2.08984 8.75977C2.01823 8.68815 1.98242 8.60352 1.98242 8.50586V2.91992C1.98242 2.82227 2.01823 2.73926 2.08984 2.6709C2.16146 2.60254 2.24609 2.56836 2.34375 2.56836H4.24805L8.01758 6.25977V8.50586ZM8.01758 5.24414L5.2832 2.56836H6.15234C6.19792 2.56836 6.24349 2.5765 6.28906 2.59277C6.33463 2.60905 6.3737 2.63346 6.40625 2.66602L7.91016 4.14062C7.94271 4.17318 7.96875 4.21061 7.98828 4.25293C8.00781 4.29525 8.01758 4.34245 8.01758 4.39453V5.24414Z" fill="currentColor"/>
</svg>
