<svg width="10" height="10" viewBox="0 0 10 10" fill="none" xmlns="http://www.w3.org/2000/svg">
<path d="M5.80221 4.34257L6.74398 3.4008M4.21583 5.00871C4.21583 5.25239 4.31263 5.48609 4.48494 5.6584C4.65725 5.83071 4.89095 5.92752 5.13463 5.92752C5.37832 5.92752 5.61202 5.83071 5.78433 5.6584C5.95664 5.48609 6.05344 5.25239 6.05344 5.00871C6.05344 4.76503 5.95664 4.53132 5.78433 4.35901C5.61202 4.1867 5.37832 4.0899 5.13463 4.0899C4.89095 4.0899 4.65725 4.1867 4.48494 4.35901C4.31263 4.53132 4.21583 4.76503 4.21583 5.00871ZM2.56197 8.22393C1.89039 7.69015 1.40148 6.96067 1.16299 6.13662C0.924494 5.31256 0.948235 4.43472 1.23092 3.62475C1.5136 2.81479 2.04123 2.11281 2.74067 1.6161C3.44012 1.11939 4.27676 0.852539 5.13464 0.852539C5.99251 0.852539 6.82915 1.11939 7.5286 1.6161C8.22804 2.11281 8.75567 2.81479 9.03835 3.62475C9.32103 4.43472 9.34478 5.31256 9.10628 6.13662C8.86779 6.96067 8.37888 7.69015 7.7073 8.22393H2.56197Z" stroke="currentColor" strokeWidth="0.622544" strokeLinecap="round" strokeLinejoin="round"/>
</svg>
