<svg width="22" height="22" viewBox="0 0 22 22" fill="none" xmlns="http://www.w3.org/2000/svg">
<path d="M10.9987 20.1667C9.73064 20.1667 8.53898 19.9259 7.4237 19.4443C6.30842 18.9628 5.33828 18.3098 4.51328 17.4854C3.68828 16.661 3.03531 15.6909 2.55437 14.575C2.07342 13.4591 1.83264 12.2675 1.83203 11C1.83142 9.73257 2.0722 8.5409 2.55437 7.42501C3.03653 6.30912 3.6895 5.33898 4.51328 4.51459C5.33706 3.6902 6.3072 3.03723 7.4237 2.55568C8.5402 2.07412 9.73187 1.83334 10.9987 1.83334C13.1529 1.83334 15.0436 2.47898 16.671 3.77026C18.2984 5.06154 19.3639 6.70757 19.8674 8.70834C19.9438 8.95279 19.917 9.18195 19.7868 9.39584C19.6566 9.60973 19.4696 9.75487 19.2258 9.83126C18.982 9.90765 18.7528 9.87709 18.5383 9.73959C18.3238 9.60209 18.1786 9.41112 18.1029 9.16668C17.8126 8.0514 17.2892 7.05834 16.5326 6.18751C15.7761 5.31668 14.8481 4.65973 13.7487 4.21668V4.58334C13.7487 5.08751 13.5693 5.51926 13.2106 5.87859C12.8519 6.23793 12.4201 6.41729 11.9154 6.41668H10.082V8.25001C10.082 8.50973 9.99403 8.72759 9.81803 8.90359C9.64203 9.07959 9.42448 9.16729 9.16537 9.16668H7.33203V11H12.832C13.0612 11 13.2369 11.1033 13.3591 11.3098C13.4813 11.5164 13.4813 11.7263 13.3591 11.9396C13.1758 12.291 13.0423 12.6576 12.9585 13.0396C12.8748 13.4215 12.8326 13.8111 12.832 14.2083C12.832 15.0181 13.0154 15.7783 13.382 16.489C13.7487 17.1997 14.1536 17.8756 14.5966 18.5167C14.7188 18.7 14.757 18.8986 14.7112 19.1125C14.6654 19.3264 14.5355 19.4715 14.3216 19.5479C13.8022 19.7618 13.2635 19.9186 12.7055 20.0182C12.1476 20.1178 11.5786 20.1673 10.9987 20.1667ZM10.082 18.2875V16.5C9.57787 16.5 9.14642 16.3206 8.7877 15.9619C8.42898 15.6032 8.24931 15.1715 8.2487 14.6667V13.75L3.8487 9.35001C3.80287 9.62501 3.761 9.90001 3.72312 10.175C3.68523 10.45 3.66598 10.725 3.66537 11C3.66537 12.8486 4.27281 14.4681 5.4877 15.8583C6.70259 17.2486 8.23403 18.0583 10.082 18.2875ZM17.8737 20.1667C17.7668 20.1667 17.6751 20.1361 17.5987 20.075C17.5223 20.0139 17.4688 19.9375 17.4383 19.8458C17.2702 19.3111 17.0334 18.8146 16.7279 18.3563C16.4223 17.8979 16.0938 17.4472 15.7424 17.0042C15.4216 16.607 15.1619 16.1715 14.9633 15.6979C14.7647 15.2243 14.6654 14.7278 14.6654 14.2083C14.6654 13.3222 14.9786 12.566 15.6049 11.9396C16.2313 11.3132 16.9876 11 17.8737 11C18.7598 11 19.5161 11.3132 20.1425 11.9396C20.7688 12.566 21.082 13.3222 21.082 14.2083C21.082 14.7278 20.9791 15.2206 20.7731 15.6869C20.5672 16.1532 20.3111 16.5923 20.005 17.0042C19.6536 17.4472 19.3251 17.8979 19.0195 18.3563C18.714 18.8146 18.4772 19.3111 18.3091 19.8458C18.2786 19.9375 18.2251 20.0139 18.1487 20.075C18.0723 20.1361 17.9806 20.1667 17.8737 20.1667ZM17.8737 17.5771C18.0265 17.3174 18.1945 17.0769 18.3779 16.8557C18.5612 16.6345 18.7369 16.409 18.9049 16.1792C19.1188 15.8889 19.3061 15.5797 19.4669 15.2515C19.6276 14.9233 19.7076 14.5756 19.707 14.2083C19.707 13.7042 19.5277 13.2727 19.169 12.914C18.8102 12.5553 18.3785 12.3756 17.8737 12.375C17.3689 12.3744 16.9375 12.5541 16.5794 12.914C16.2213 13.274 16.0416 13.7054 16.0404 14.2083C16.0404 14.575 16.1207 14.9227 16.2814 15.2515C16.4422 15.5803 16.6292 15.8895 16.8425 16.1792L17.3814 16.8557C17.5568 17.0775 17.7209 17.318 17.8737 17.5771ZM17.8737 15.3542C17.5529 15.3542 17.2815 15.2433 17.0597 15.0214C16.8379 14.7996 16.7273 14.5286 16.7279 14.2083C16.7285 13.8881 16.8394 13.6168 17.0606 13.3943C17.2818 13.1719 17.5529 13.0613 17.8737 13.0625C18.1945 13.0637 18.4659 13.1746 18.6877 13.3953C18.9095 13.6159 19.0201 13.8869 19.0195 14.2083C19.0189 14.5298 18.908 14.8011 18.6868 15.0223C18.4656 15.2436 18.1945 15.3542 17.8737 15.3542Z" fill="white"/>
</svg>
