<svg width="20" height="20" viewBox="0 0 20 20" fill="none" xmlns="http://www.w3.org/2000/svg">
<path d="M12.4974 1.66699H7.4974C7.03716 1.66699 6.66406 2.04009 6.66406 2.50033V4.16699C6.66406 4.62723 7.03716 5.00033 7.4974 5.00033H12.4974C12.9576 5.00033 13.3307 4.62723 13.3307 4.16699V2.50033C13.3307 2.04009 12.9576 1.66699 12.4974 1.66699Z" stroke="#9CA3AF" stroke-width="2" stroke-linecap="round" stroke-linejoin="round"/>
<path d="M13.3359 3.33301H15.0026C15.4446 3.33301 15.8686 3.5086 16.1811 3.82116C16.4937 4.13372 16.6693 4.55765 16.6693 4.99967V16.6663C16.6693 17.1084 16.4937 17.5323 16.1811 17.8449C15.8686 18.1574 15.4446 18.333 15.0026 18.333H5.0026C4.56058 18.333 4.13665 18.1574 3.82409 17.8449C3.51153 17.5323 3.33594 17.1084 3.33594 16.6663V4.99967C3.33594 4.55765 3.51153 4.13372 3.82409 3.82116C4.13665 3.5086 4.56058 3.33301 5.0026 3.33301H6.66927" stroke="#9CA3AF" stroke-width="2" stroke-linecap="round" stroke-linejoin="round"/>
<path d="M10 9.16699H13.3333" stroke="#9CA3AF" stroke-width="2" stroke-linecap="round" stroke-linejoin="round"/>
<path d="M10 13.333H13.3333" stroke="#9CA3AF" stroke-width="2" stroke-linecap="round" stroke-linejoin="round"/>
<path d="M6.66406 9.16699H6.6724" stroke="#9CA3AF" stroke-width="2" stroke-linecap="round" stroke-linejoin="round"/>
<path d="M6.66406 13.333H6.6724" stroke="#9CA3AF" stroke-width="2" stroke-linecap="round" stroke-linejoin="round"/>
</svg>
