<svg width="29" height="29" viewBox="0 0 29 29" fill="none" xmlns="http://www.w3.org/2000/svg">
<rect width="28.8" height="28.8" rx="14.4" fill="#C2C9C8"/>
<path d="M18.4551 5.44043H10.3142C7.61657 5.44043 5.42969 7.62732 5.42969 10.325V18.4659C5.42969 21.1635 7.61657 23.3504 10.3142 23.3504H18.4551C21.1528 23.3504 23.3397 21.1635 23.3397 18.4659V10.325C23.3397 7.62732 21.1528 5.44043 18.4551 5.44043ZM10.3142 7.06861H18.4551C20.2536 7.06861 21.7115 8.52654 21.7115 10.325V18.4659C21.7115 20.2643 20.2536 21.7222 18.4551 21.7222H10.3142C8.51579 21.7222 7.05787 20.2643 7.05787 18.4659V10.325C7.05787 8.52654 8.51579 7.06861 10.3142 7.06861Z" fill="#29302F"/>
<path d="M10.7823 12.5298C9.99286 14.0984 10.2983 15.9964 11.54 17.2381C12.7817 18.4798 14.6797 18.7853 16.2483 17.9958C17.8168 17.2063 18.7022 15.4999 18.4446 13.7628C18.1816 11.9891 16.789 10.5965 15.0153 10.3335C13.2783 10.0759 11.5718 10.9613 10.7823 12.5298ZM14.7765 11.944C15.8407 12.1018 16.6763 12.9374 16.8341 14.0016C16.9886 15.0439 16.4574 16.0677 15.5162 16.5414C14.5751 17.0151 13.4363 16.8319 12.6913 16.0868C11.9463 15.3418 11.763 14.203 12.2367 13.2619C12.6867 12.3678 13.6332 11.8436 14.6203 11.926L14.7765 11.944ZM18.8686 9.10352C19.3183 9.10352 19.6827 9.468 19.6827 9.91761C19.6827 10.3351 19.3685 10.6792 18.9636 10.7262L18.8605 10.7317C18.4109 10.7317 18.0464 10.3672 18.0464 9.91761C18.0464 9.50011 18.3607 9.15602 18.7656 9.10899L18.8686 9.10352Z" fill="#29302F"/>
</svg>
