<svg xmlns="http://www.w3.org/2000/svg" width="150" height="44" viewBox="0 0 150 44" fill="none">
<g clip-path="url(#clip0_73065_1235)">
<path d="M84.855 29.181C84.7355 28.9156 84.5773 28.6934 84.3801 28.5161C84.1806 28.3388 83.9556 28.203 83.7057 28.1058C83.4557 28.0103 83.1961 27.9615 82.932 27.9615C82.4894 27.9615 82.1029 28.0802 81.7719 28.3166C81.4397 28.553 81.2068 28.9298 81.0753 29.4475L79.175 37.0709L77.2066 29.5362C77.0751 29.0185 76.8127 28.6275 76.4228 28.3615C76.0329 28.095 75.631 27.9615 75.2179 27.9615C74.7038 27.9615 74.2753 28.0956 73.937 28.3615C73.5969 28.6269 73.3617 29.0185 73.2302 29.5362L71.2177 37.0709L69.0974 29.4242C68.9495 28.9082 68.6984 28.5348 68.3453 28.3064C67.9911 28.078 67.6012 27.962 67.175 27.962C66.8944 27.962 66.6241 28.0109 66.3668 28.1064C66.11 28.2035 65.881 28.3428 65.6815 28.5286C65.4837 28.7121 65.3239 28.9378 65.2066 29.2048C65.0882 29.4697 65.0303 29.7652 65.0303 30.0902C65.0303 30.209 65.0485 30.3187 65.0842 30.4221C65.1227 30.5261 65.1613 30.6363 65.2066 30.7545L69.0067 42.2127C69.1547 42.6997 69.4239 43.0725 69.8138 43.3305C70.2049 43.5902 70.6362 43.7181 71.1071 43.7181C71.4897 43.7181 71.8836 43.5976 72.2888 43.3527C72.6935 43.1089 72.9843 42.7281 73.1628 42.2127L75.1289 36.4941L77.1845 42.2127C77.3602 42.6997 77.6379 43.0725 78.0137 43.3305C78.3894 43.5902 78.8122 43.7181 79.2832 43.7181C79.6658 43.7181 80.0597 43.5976 80.4666 43.3527C80.8713 43.1089 81.1632 42.7281 81.3394 42.2127L84.9202 30.8443C84.9639 30.7102 84.9939 30.5772 85.0086 30.4454C85.0228 30.3124 85.0296 30.1857 85.0296 30.0686C85.0296 29.7436 84.9701 29.4481 84.8539 29.1815L84.855 29.181Z" fill="#222222"/>
<path d="M98.2272 28.5161C97.801 28.1473 97.2921 27.9615 96.7044 27.9615C96.1166 27.9615 95.632 28.1473 95.2109 28.5161C94.7921 28.8849 94.5813 29.41 94.5813 30.0902V33.8119H91.0883V30.0902C91.0883 29.41 90.8758 28.8849 90.4485 28.5161C90.02 28.1473 89.5127 27.9615 88.9233 27.9615C88.3339 27.9615 87.8516 28.1473 87.4322 28.5161C87.0111 28.8849 86.8025 29.41 86.8025 30.0902V41.5683C86.8025 42.2769 87.0111 42.8128 87.4322 43.1754C87.8516 43.5373 88.3497 43.7181 88.9233 43.7181C89.4969 43.7181 90.02 43.5373 90.4485 43.1754C90.8764 42.8128 91.0883 42.2769 91.0883 41.5683V37.8677H94.5813V41.5683C94.5813 42.2769 94.7921 42.8128 95.2109 43.1754C95.632 43.5373 96.1285 43.7181 96.7044 43.7181C97.2802 43.7181 97.801 43.5373 98.2272 43.1754C98.6557 42.8128 98.8694 42.2769 98.8694 41.5683V30.0902C98.8694 29.41 98.6557 28.8849 98.2272 28.5161Z" fill="#222222"/>
<path d="M136.003 39.9391C135.658 39.5186 135.152 39.3077 134.49 39.3077H132.214V30.0897C132.214 29.4095 131.999 28.8844 131.573 28.5156C131.145 28.1468 130.644 27.961 130.069 27.961C129.494 27.961 128.998 28.1468 128.578 28.5156C128.157 28.8844 127.948 29.4095 127.948 30.0897V41.4581C127.948 42.9055 128.655 43.6295 130.069 43.6295H134.489C135.151 43.6295 135.657 43.4141 136.002 42.9868C136.349 42.5577 136.522 42.0491 136.522 41.4581C136.522 40.8671 136.349 40.3613 136.002 39.9391H136.003Z" fill="#222222"/>
<path d="M147.806 35.119C147.061 34.3666 145.909 33.9892 144.346 33.9892H142.137C141.842 33.9892 141.628 33.9057 141.495 33.7341C141.364 33.5647 141.298 33.384 141.298 33.1914C141.298 32.9851 141.364 32.7964 141.495 32.6265C141.629 32.4572 141.842 32.3714 142.137 32.3714H145.85C146.218 32.3714 146.545 32.3089 146.834 32.1833C147.121 32.0582 147.36 31.8929 147.551 31.6855C147.744 31.478 147.886 31.2416 147.983 30.9768C148.079 30.7097 148.127 30.4449 148.127 30.1778C148.127 29.9107 148.079 29.6499 147.983 29.3919C147.886 29.1339 147.744 28.9049 147.551 28.7043C147.361 28.5048 147.125 28.3423 146.845 28.2184C146.564 28.0922 146.241 28.0286 145.872 28.0286H142.424C139.169 28.0286 137.541 29.6982 137.541 33.0362C137.541 34.6467 137.924 35.8231 138.69 36.5601C139.456 37.2995 140.598 37.6688 142.115 37.6688H144.325C144.62 37.6688 144.837 37.7575 144.978 37.9342C145.117 38.111 145.186 38.3036 145.186 38.5088C145.186 38.702 145.117 38.8827 144.978 39.0532C144.837 39.2231 144.62 39.3072 144.325 39.3072H139.861C139.506 39.3072 139.193 39.3703 138.922 39.4953C138.649 39.6209 138.42 39.7834 138.237 39.9834C138.051 40.1823 137.917 40.4108 137.829 40.671C137.739 40.9285 137.695 41.1899 137.695 41.457C137.695 41.7241 137.739 42.0071 137.829 42.2651C137.917 42.5236 138.048 42.7526 138.227 42.9521C138.402 43.1521 138.623 43.3141 138.889 43.4403C139.154 43.5653 139.464 43.6284 139.816 43.6284H144.082C147.309 43.6284 148.922 41.9747 148.922 38.6639C148.922 37.054 148.55 35.872 147.808 35.1184L147.806 35.119Z" fill="#222222"/>
<path d="M26.6078 28.8195C26.4882 28.5547 26.33 28.3325 26.1328 28.1558C25.9333 27.9773 25.7083 27.8415 25.4584 27.7443C25.2084 27.6489 24.9489 27.6006 24.6847 27.6006C24.2421 27.6006 23.8556 27.7193 23.5246 27.9557C23.1925 28.1921 22.9595 28.5689 22.828 29.0866L20.9277 36.7095L18.9593 29.1741C18.8278 28.657 18.5654 28.266 18.1755 28.0012C17.7856 27.7341 17.3837 27.6011 16.9706 27.6011C16.4565 27.6011 16.0281 27.7341 15.6897 28.0012C15.3496 28.266 15.1144 28.657 14.9829 29.1741L12.9704 36.7095L10.8501 29.0633C10.7022 28.5473 10.4511 28.1739 10.098 27.9444C9.74382 27.7159 9.35389 27.6006 8.92768 27.6006C8.64714 27.6006 8.37679 27.6489 8.11948 27.7443C7.86274 27.8415 7.63377 27.9807 7.43427 28.1666C7.23647 28.3507 7.07664 28.5751 6.95932 28.8428C6.84087 29.1082 6.78306 29.4043 6.78306 29.7282C6.78306 29.847 6.8012 29.9578 6.8369 30.0601C6.87544 30.1646 6.91398 30.2743 6.95932 30.3942L10.7595 41.8507C10.9074 42.3377 11.1766 42.7105 11.5665 42.9685C11.9576 43.2282 12.3889 43.3566 12.8599 43.3566C13.2424 43.3566 13.6363 43.2356 14.0416 42.9901C14.4462 42.7463 14.737 42.3667 14.9155 41.8501L16.8816 36.1315L18.9372 41.8501C19.1129 42.3371 19.3906 42.7099 19.7664 42.9679C20.1422 43.2276 20.565 43.356 21.0359 43.356C21.4185 43.356 21.8124 43.235 22.2193 42.9895C22.624 42.7457 22.9159 42.3661 23.0921 41.8495L26.6729 30.4811C26.7166 30.3482 26.7466 30.2141 26.7614 30.0822C26.7755 29.9492 26.7823 29.8225 26.7823 29.7055C26.7823 29.381 26.7228 29.0855 26.6066 28.8184L26.6078 28.8195Z" fill="#222222"/>
<path d="M44.7434 34.7573C43.9993 34.0055 42.8459 33.6287 41.2828 33.6287H39.0741C38.7794 33.6287 38.5652 33.5435 38.4326 33.373C38.3011 33.2031 38.2348 33.0224 38.2348 32.8297C38.2348 32.6246 38.3016 32.4348 38.4326 32.2654C38.5652 32.0955 38.7794 32.0114 39.0741 32.0114H42.787C43.1554 32.0114 43.4835 31.9483 43.7709 31.8216C44.0588 31.6966 44.2974 31.5312 44.489 31.3238C44.6811 31.1169 44.8228 30.8805 44.9203 30.6151C45.0155 30.3486 45.0642 30.0832 45.0642 29.8161C45.0642 29.5491 45.0155 29.2882 44.9203 29.0302C44.8228 28.7728 44.6811 28.5432 44.489 28.3432C44.2974 28.1426 44.0622 27.9806 43.7816 27.8562C43.5017 27.73 43.1775 27.6664 42.8091 27.6664H39.3615C36.106 27.6664 34.4783 29.3365 34.4783 32.6746C34.4783 34.2845 34.8608 35.4603 35.6271 36.1985C36.3934 36.9372 37.5359 37.3072 39.0515 37.3072H41.2618C41.5565 37.3072 41.7742 37.3952 41.9147 37.572C42.0536 37.7487 42.1233 37.9419 42.1233 38.1476C42.1233 38.3403 42.0536 38.521 41.9147 38.6921C41.7742 38.8614 41.5571 38.9466 41.2618 38.9466H36.798C36.4438 38.9466 36.1304 39.0097 35.8595 39.1342C35.5857 39.2603 35.3573 39.4229 35.1737 39.6235C34.9884 39.8212 34.854 40.0508 34.7656 40.3105C34.6755 40.5685 34.633 40.8299 34.633 41.0964C34.633 41.363 34.6755 41.6465 34.7656 41.9045C34.854 42.1642 34.9855 42.3938 35.1635 42.5916C35.3397 42.791 35.5614 42.9541 35.8255 43.0809C36.0918 43.2047 36.4007 43.2684 36.7538 43.2684H41.0204C44.2469 43.2684 45.8599 41.6147 45.8599 38.3039C45.8599 36.6957 45.4876 35.512 44.7451 34.7584L44.7434 34.7573Z" fill="#222222"/>
<path d="M56.8623 38.9474H51.7127V37.4398H56.0002C56.6191 37.4398 57.1009 37.2449 57.4483 36.8539C57.7935 36.4629 57.968 36.0009 57.968 35.469C57.968 34.9371 57.7935 34.4751 57.4483 34.083C57.1009 33.6926 56.6191 33.4959 56.0002 33.4959H51.7127V32.0116H56.8623C57.5395 32.0116 58.0672 31.7962 58.443 31.3677C58.8187 30.9404 59.0058 30.4301 59.0058 29.8385C59.0058 29.2469 58.8187 28.7383 58.443 28.3116C58.0672 27.8825 57.5395 27.6677 56.8623 27.6677H49.5692C48.1551 27.6677 47.4478 28.3928 47.4478 29.8391V41.0978C47.4478 42.5457 48.1546 43.2692 49.5692 43.2692H56.8623C57.5395 43.2692 58.0672 43.0549 58.443 42.6276C58.8187 42.198 59.0058 41.6894 59.0058 41.0983C59.0058 40.5073 58.8187 40.0021 58.443 39.5793C58.0672 39.1594 57.5395 38.9491 56.8623 38.9491V38.9474Z" fill="#222222"/>
<path d="M33.0199 41.2068C33.0199 41.9154 32.8056 42.4513 32.3794 42.8133C31.9515 43.1759 31.4516 43.356 30.8758 43.356C30.3 43.356 29.7825 43.1759 29.3614 42.8133C28.9426 42.4508 28.7318 41.9154 28.7318 41.2068V29.7282C28.7318 29.0485 28.942 28.5234 29.3614 28.1558C29.7825 27.7858 30.2858 27.6006 30.8758 27.6006C31.4658 27.6006 31.9515 27.7864 32.3794 28.1558C32.8056 28.5234 33.0199 29.0485 33.0199 29.7282V41.2068Z" fill="#222222"/>
<path d="M110.638 39.2753H105.489V37.7677H109.776C110.395 37.7677 110.877 37.5728 111.224 37.1818C111.57 36.7908 111.744 36.3288 111.744 35.7969C111.744 35.265 111.57 34.803 111.224 34.4109C110.877 34.0205 110.395 33.8238 109.776 33.8238H105.489V32.3395H110.638C111.316 32.3395 111.843 32.1241 112.219 31.6957C112.595 31.2683 112.782 30.758 112.782 30.1664C112.782 29.5748 112.595 29.0662 112.219 28.6395C111.843 28.2104 111.316 27.9956 110.638 27.9956H103.345C101.931 27.9956 101.224 28.7207 101.224 30.167V41.4257C101.224 42.8737 101.931 43.5971 103.345 43.5971H110.638C111.316 43.5971 111.843 43.3828 112.219 42.9555C112.595 42.5259 112.782 42.0173 112.782 41.4263C112.782 40.8352 112.595 40.33 112.219 39.9073C111.843 39.4873 111.316 39.277 110.638 39.277V39.2753Z" fill="#007AFF"/>
<path d="M123.515 39.2752H118.365V37.7676H122.653C123.272 37.7676 123.754 37.5726 124.101 37.1817C124.446 36.7907 124.621 36.3287 124.621 35.7968C124.621 35.2649 124.446 34.8029 124.101 34.4108C123.754 34.0204 123.272 33.8237 122.653 33.8237H118.365V32.3394H123.515C124.192 32.3394 124.72 32.124 125.096 31.6955C125.472 31.2682 125.659 30.7579 125.659 30.1663C125.659 29.5747 125.472 29.0661 125.096 28.6393C124.72 28.2103 124.192 27.9955 123.515 27.9955H116.222C114.808 27.9955 114.101 28.7206 114.101 30.1669V41.4256C114.101 42.8735 114.807 43.5969 116.222 43.5969H123.515C124.192 43.5969 124.72 43.3827 125.096 42.9554C125.472 42.5257 125.659 42.0171 125.659 41.4261C125.659 40.8351 125.472 40.3299 125.096 39.9071C124.72 39.4872 124.192 39.2769 123.515 39.2769V39.2752Z" fill="#007AFF"/>
<path d="M107.293 6.12766C75.8739 -2.46411 48.1168 4.95247 48.1168 4.95247C61.4459 5.39288 89.471 9.3998 89.471 9.3998C45.4672 4.59445 15.0497 8.58773 15.0497 8.58773L24.8269 10.3778L8.78818 9.40037L11.5069 15.39L17.5764 16.4362L0 19.0241L6.04223 17.1238L5.79512 12.4151L3.48784 8.3394C82.4103 -8.39408 107.293 6.12709 107.293 6.12709V6.12766ZM40.045 11.7576C42.4044 13.6005 45.2138 14.774 48.1803 15.1559L59.6147 16.6283L48.5895 13.8494C47.2627 13.5147 46.1394 12.6316 45.4995 11.4195L45.1866 10.8273C88.397 10.8273 103.264 13.3243 103.264 13.3243C69.9405 8.03707 37.3501 9.65382 37.3501 9.65382L40.0444 11.7581L40.045 11.7576ZM132.12 12.4429H126.701C128.421 13.4215 130.354 13.9597 132.331 14.0074C134.094 14.05 136.244 14.158 137.54 14.4256C140.031 14.9399 144.718 17.8768 144.718 17.8768L139.884 19.0241H150.064C130.51 6.71469 109.71 6.56808 98.9444 8.257C116.594 6.12766 132.121 12.4429 132.121 12.4429H132.12Z" fill="#222222"/>
<path d="M28.6952 23.0174C36.4179 22.6747 44.1406 22.4957 51.8632 22.3735C55.7246 22.2974 59.5859 22.2803 63.4473 22.2354L75.0313 22.19L86.6153 22.2337C90.4766 22.2798 94.338 22.2945 98.1993 22.3718C105.922 22.4929 113.645 22.673 121.367 23.0179C113.645 23.3629 105.922 23.543 98.1993 23.6641C94.338 23.7414 90.4766 23.7556 86.6153 23.8022L75.0313 23.8459L63.4473 23.8005C59.5859 23.7556 55.7246 23.7385 51.8632 23.6624C44.1406 23.5408 36.4179 23.3612 28.6952 23.0185V23.0174Z" fill="#222222"/>
<path d="M33.1401 20.9528C33.0936 20.9767 33.0454 21 32.9967 21.021H34.2158C33.9052 17.8529 31.2335 15.3701 27.9933 15.3701C24.7532 15.3701 22.0814 17.8529 21.7709 21.021H22.99C22.9412 21 22.893 20.9767 22.8466 20.9528C22.6896 20.8721 22.6063 20.6965 22.6431 20.5232C22.8732 19.4389 23.4247 18.4598 24.2351 17.6898C24.3116 17.6176 24.4233 17.5722 24.5196 17.583C24.6245 17.5875 24.7237 17.6341 24.7945 17.7125C25.9201 18.9644 26.1967 20.1078 25.5341 20.7721C25.4367 20.8699 25.3165 20.9528 25.1799 21.021H26.5566C26.7969 20.4636 27.3506 20.0726 27.9928 20.0726C28.6349 20.0726 29.1897 20.4636 29.4289 21.021H30.8056C30.6696 20.9528 30.55 20.8699 30.4519 20.7721C29.7894 20.1078 30.0654 18.9644 31.191 17.7125C31.2613 17.6341 31.3604 17.5875 31.4664 17.583C31.5571 17.5733 31.6733 17.6176 31.7498 17.6898C32.5603 18.4592 33.1117 19.4389 33.3418 20.5232C33.3787 20.696 33.2954 20.8721 33.1384 20.9528H33.1401ZM27.9939 19.3196C26.9868 19.3196 26.1547 18.2564 26.0567 16.8465C26.0448 16.6658 26.1564 16.5004 26.3276 16.4464C27.4101 16.0998 28.5776 16.0998 29.6607 16.4464C29.8325 16.5004 29.9435 16.6663 29.9316 16.8465C29.8342 18.2564 29.001 19.3196 27.9945 19.3196H27.9939Z" fill="#007AFF"/>
<path d="M27.9929 12.236C23.0281 12.236 18.9525 16.1241 18.634 21.0215H20.9855C21.2989 17.4209 24.3215 14.5869 27.9929 14.5869C31.6644 14.5869 34.6864 17.4209 35.0003 21.0215H37.3518C37.0339 16.1241 32.9577 12.236 27.9929 12.236Z" fill="#007AFF"/>
<path d="M123.738 20.9527C123.691 20.9766 123.643 20.9999 123.594 21.0209H124.813C124.503 17.8528 121.831 15.37 118.591 15.37C115.351 15.37 112.679 17.8528 112.368 21.0209H113.587C113.539 20.9999 113.491 20.9766 113.444 20.9527C113.287 20.872 113.204 20.6965 113.241 20.5231C113.471 19.4389 114.022 18.4597 114.833 17.6897C114.909 17.6175 115.021 17.5721 115.117 17.5829C115.222 17.5874 115.321 17.634 115.392 17.7124C116.518 18.9643 116.794 20.1077 116.132 20.772C116.034 20.8698 115.914 20.9527 115.777 21.0209H117.154C117.394 20.4635 117.948 20.0725 118.59 20.0725C119.232 20.0725 119.787 20.4635 120.026 21.0209H121.403C121.267 20.9527 121.148 20.8698 121.049 20.772C120.387 20.1077 120.663 18.9643 121.789 17.7124C121.859 17.634 121.958 17.5874 122.064 17.5829C122.155 17.5732 122.271 17.6175 122.347 17.6897C123.158 18.4591 123.709 19.4389 123.939 20.5231C123.976 20.6959 123.893 20.872 123.736 20.9527H123.738ZM118.591 19.3195C117.584 19.3195 116.752 18.2563 116.654 16.8464C116.642 16.6657 116.753 16.5003 116.925 16.4463C118.007 16.0997 119.175 16.0997 120.258 16.4463C120.429 16.5003 120.541 16.6662 120.529 16.8464C120.431 18.2563 119.598 19.3195 118.591 19.3195H118.591Z" fill="#007AFF"/>
<path d="M118.591 12.236C113.626 12.236 109.55 16.1241 109.232 21.0215H111.583C111.897 17.4209 114.919 14.5869 118.591 14.5869C122.262 14.5869 125.284 17.4209 125.598 21.0215H127.95C127.632 16.1241 123.555 12.236 118.591 12.236Z" fill="#007AFF"/>
</g>
<defs>
<clipPath id="clip0_73065_1235">
<rect width="150" height="44" fill="white"/>
</clipPath>
</defs>
</svg>