<svg width="104" height="30" viewBox="0 0 104 30" fill="none" xmlns="http://www.w3.org/2000/svg">
<g clip-path="url(#clip0_75762_2781)">
<path d="M58.6318 19.9612C58.5491 19.7779 58.4399 19.6243 58.3036 19.5018C58.1657 19.3793 58.0103 19.2855 57.8376 19.2183C57.6649 19.1524 57.4855 19.1186 57.303 19.1186C56.9972 19.1186 56.7301 19.2007 56.5014 19.364C56.2719 19.5273 56.111 19.7877 56.0201 20.1454L54.707 25.4129L53.347 20.2067C53.2561 19.8489 53.0748 19.5788 52.8054 19.395C52.5359 19.2109 52.2583 19.1186 51.9728 19.1186C51.6176 19.1186 51.3216 19.2113 51.0878 19.395C50.8528 19.5784 50.6903 19.8489 50.5994 20.2067L49.2088 25.4129L47.7438 20.1293C47.6416 19.7728 47.4681 19.5148 47.2241 19.3569C46.9794 19.1991 46.7099 19.119 46.4154 19.119C46.2216 19.119 46.0348 19.1528 45.857 19.2187C45.6796 19.2859 45.5214 19.3821 45.3836 19.5105C45.2469 19.6373 45.1364 19.7932 45.0554 19.9777C44.9735 20.1607 44.9336 20.3649 44.9336 20.5895C44.9336 20.6716 44.9461 20.7473 44.9708 20.8188C44.9974 20.8907 45.0241 20.9668 45.0554 21.0485L47.6811 28.9657C47.7833 29.3022 47.9694 29.5598 48.2388 29.7381C48.509 29.9175 48.807 30.0059 49.1324 30.0059C49.3968 30.0059 49.669 29.9226 49.949 29.7534C50.2286 29.5849 50.4295 29.3218 50.5528 28.9657L51.9113 25.0144L53.3317 28.9657C53.4531 29.3022 53.645 29.5598 53.9046 29.7381C54.1643 29.9175 54.4564 30.0059 54.7818 30.0059C55.0462 30.0059 55.3183 29.9226 55.5995 29.7534C55.8791 29.5849 56.0808 29.3218 56.2026 28.9657L58.6768 21.1106C58.7069 21.0179 58.7277 20.926 58.7379 20.8349C58.7477 20.743 58.7524 20.6555 58.7524 20.5746C58.7524 20.35 58.7113 20.1458 58.631 19.9616L58.6318 19.9612Z" fill="white"/>
<path d="M67.8707 19.5018C67.5762 19.247 67.2245 19.1186 66.8184 19.1186C66.4123 19.1186 66.0775 19.247 65.7865 19.5018C65.4971 19.7567 65.3514 20.1195 65.3514 20.5895V23.161H62.9379V20.5895C62.9379 20.1195 62.7911 19.7567 62.4958 19.5018C62.1997 19.247 61.8492 19.1186 61.442 19.1186C61.0347 19.1186 60.7014 19.247 60.4116 19.5018C60.1207 19.7567 59.9766 20.1195 59.9766 20.5895V28.5204C59.9766 29.0101 60.1207 29.3803 60.4116 29.6309C60.7014 29.881 61.0457 30.0059 61.442 30.0059C61.8383 30.0059 62.1997 29.881 62.4958 29.6309C62.7915 29.3803 62.9379 29.0101 62.9379 28.5204V25.9634H65.3514V28.5204C65.3514 29.0101 65.4971 29.3803 65.7865 29.6309C66.0775 29.881 66.4205 30.0059 66.8184 30.0059C67.2163 30.0059 67.5762 29.881 67.8707 29.6309C68.1667 29.3803 68.3144 29.0101 68.3144 28.5204V20.5895C68.3144 20.1195 68.1667 19.7567 67.8707 19.5018Z" fill="white"/>
<path d="M93.9757 27.3951C93.7372 27.1045 93.3879 26.9588 92.9305 26.9588H91.3574V20.5895C91.3574 20.1195 91.209 19.7567 90.9145 19.5018C90.6188 19.247 90.273 19.1186 89.8756 19.1186C89.4781 19.1186 89.1354 19.247 88.8452 19.5018C88.5543 19.7567 88.4102 20.1195 88.4102 20.5895V28.4446C88.4102 29.4447 88.8985 29.945 89.8752 29.945H92.9297C93.3871 29.945 93.7365 29.7962 93.975 29.5009C94.215 29.2044 94.3341 28.853 94.3341 28.4446C94.3341 28.0363 94.215 27.6868 93.975 27.3951H93.9757Z" fill="white"/>
<path d="M102.128 24.0663C101.613 23.5464 100.817 23.2857 99.7372 23.2857H98.2111C98.0075 23.2857 97.8595 23.2279 97.7674 23.1094C97.6766 22.9923 97.6311 22.8675 97.6311 22.7344C97.6311 22.5918 97.677 22.4615 97.7674 22.3441C97.8598 22.227 98.0075 22.1678 98.2111 22.1678H100.777C101.031 22.1678 101.257 22.1246 101.456 22.0378C101.655 21.9514 101.82 21.8371 101.952 21.6938C102.085 21.5505 102.183 21.3871 102.25 21.2042C102.316 21.0196 102.35 20.8366 102.35 20.6521C102.35 20.4675 102.316 20.2873 102.25 20.109C102.183 19.9308 102.085 19.7725 101.952 19.6339C101.821 19.4961 101.658 19.3838 101.464 19.2982C101.27 19.211 101.046 19.1671 100.791 19.1671H98.4093C96.1603 19.1671 95.0352 20.3207 95.0352 22.6272C95.0352 23.74 95.2999 24.5528 95.8293 25.062C96.3588 25.5729 97.1479 25.8281 98.1955 25.8281H99.7227C99.9264 25.8281 100.077 25.8894 100.174 26.0115C100.27 26.1336 100.318 26.2667 100.318 26.4085C100.318 26.542 100.27 26.6668 100.174 26.7846C100.077 26.902 99.9268 26.9602 99.7227 26.9602H96.638C96.3933 26.9602 96.1771 27.0037 95.9895 27.0901C95.8008 27.1769 95.6425 27.2892 95.5161 27.4274C95.388 27.5649 95.2948 27.7227 95.2341 27.9025C95.1718 28.0804 95.1417 28.261 95.1417 28.4456C95.1417 28.6301 95.1718 28.8257 95.2341 29.004C95.2948 29.1826 95.3857 29.3409 95.509 29.4787C95.6304 29.6169 95.7831 29.7288 95.9664 29.816C96.1501 29.9024 96.3639 29.9459 96.6071 29.9459H99.5551C101.785 29.9459 102.899 28.8033 102.899 26.5157C102.899 25.4033 102.642 24.5865 102.129 24.0659L102.128 24.0663Z" fill="white"/>
<path d="M18.3818 19.711C18.2991 19.528 18.1899 19.3745 18.0536 19.2523C17.9157 19.129 17.7603 19.0352 17.5876 18.9681C17.4149 18.9021 17.2355 18.8687 17.053 18.8687C16.7472 18.8687 16.4801 18.9508 16.2514 19.1141C16.0219 19.2775 15.861 19.5378 15.7701 19.8955L14.457 25.1626L13.097 19.956C13.0061 19.5987 12.8248 19.3285 12.5554 19.1455C12.2859 18.961 12.0083 18.8691 11.7228 18.8691C11.3676 18.8691 11.0716 18.961 10.8378 19.1455C10.6028 19.3285 10.4403 19.5987 10.3494 19.956L8.95881 25.1626L7.4938 19.8794C7.39158 19.5229 7.2181 19.2649 6.97413 19.1063C6.72937 18.9484 6.45994 18.8687 6.16545 18.8687C5.9716 18.8687 5.7848 18.9021 5.60701 18.9681C5.42961 19.0352 5.2714 19.1314 5.13356 19.2598C4.99688 19.387 4.88645 19.5421 4.80538 19.7271C4.72354 19.9104 4.68359 20.115 4.68359 20.3388C4.68359 20.4209 4.69613 20.4975 4.7208 20.5681C4.74743 20.6404 4.77406 20.7162 4.80538 20.799L7.43114 28.715C7.53335 29.0515 7.71936 29.3091 7.98879 29.4874C8.259 29.6668 8.55702 29.7556 8.88245 29.7556C9.14679 29.7556 9.41896 29.6719 9.69896 29.5023C9.97857 29.3339 10.1795 29.0716 10.3028 28.7146L11.6613 24.7633L13.0817 28.7146C13.2031 29.0511 13.395 29.3087 13.6546 29.487C13.9143 29.6664 14.2064 29.7552 14.5318 29.7552C14.7962 29.7552 15.0683 29.6716 15.3495 29.5019C15.6291 29.3335 15.8308 29.0712 15.9526 28.7142L18.4268 20.8591C18.457 20.7672 18.4777 20.6746 18.4879 20.5835C18.4977 20.4916 18.5024 20.404 18.5024 20.3231C18.5024 20.0989 18.4613 19.8947 18.381 19.7102L18.3818 19.711Z" fill="white"/>
<path d="M30.9132 23.8146C30.399 23.2951 29.6021 23.0348 28.522 23.0348H26.9959C26.7923 23.0348 26.6442 22.9759 26.5526 22.8581C26.4617 22.7407 26.4159 22.6158 26.4159 22.4827C26.4159 22.341 26.4621 22.2098 26.5526 22.0928C26.6442 21.9754 26.7923 21.9173 26.9959 21.9173H29.5613C29.8159 21.9173 30.0426 21.8737 30.2412 21.7861C30.4401 21.6997 30.605 21.5855 30.7373 21.4422C30.8701 21.2992 30.968 21.1359 31.0354 20.9525C31.1011 20.7684 31.1348 20.585 31.1348 20.4004C31.1348 20.2159 31.1011 20.0357 31.0354 19.8574C30.968 19.6795 30.8701 19.5209 30.7373 19.3827C30.605 19.2441 30.4425 19.1321 30.2486 19.0462C30.0552 18.959 29.8312 18.915 29.5766 18.915H27.1944C24.945 18.915 23.8203 20.069 23.8203 22.3755C23.8203 23.4879 24.0847 24.3003 24.6141 24.8104C25.1436 25.3208 25.9331 25.5765 26.9802 25.5765H28.5075C28.7111 25.5765 28.8615 25.6373 28.9586 25.7594C29.0546 25.8816 29.1028 26.0151 29.1028 26.1572C29.1028 26.2903 29.0546 26.4152 28.9586 26.5334C28.8615 26.6504 28.7115 26.7093 28.5075 26.7093H25.4232C25.1784 26.7093 24.9619 26.7529 24.7747 26.8389C24.5855 26.926 24.4277 27.0383 24.3008 27.1769C24.1728 27.3136 24.08 27.4722 24.0189 27.6517C23.9566 27.8299 23.9272 28.0106 23.9272 28.1947C23.9272 28.3789 23.9566 28.5748 24.0189 28.7531C24.08 28.9325 24.1708 29.0912 24.2938 29.2278C24.4156 29.3656 24.5687 29.4783 24.7512 29.5659C24.9352 29.6515 25.1487 29.6955 25.3926 29.6955H28.3407C30.5701 29.6955 31.6846 28.5528 31.6846 26.2652C31.6846 25.154 31.4274 24.3361 30.9144 23.8154L30.9132 23.8146Z" fill="white"/>
<path d="M39.2863 26.71H35.7281V25.6682H38.6907C39.1183 25.6682 39.4512 25.5336 39.6912 25.2634C39.9297 24.9933 40.0503 24.674 40.0503 24.3065C40.0503 23.939 39.9297 23.6197 39.6912 23.3488C39.4512 23.079 39.1183 22.9432 38.6907 22.9432H35.7281V21.9176H39.2863C39.7543 21.9176 40.1189 21.7687 40.3785 21.4727C40.6381 21.1774 40.7674 20.8248 40.7674 20.416C40.7674 20.0073 40.6381 19.6558 40.3785 19.361C40.1189 19.0645 39.7543 18.9161 39.2863 18.9161H34.2471C33.27 18.9161 32.7812 19.4171 32.7812 20.4164V28.1958C32.7812 29.1963 33.2696 29.6961 34.2471 29.6961H39.2863C39.7543 29.6961 40.1189 29.5481 40.3785 29.2528C40.6381 28.956 40.7674 28.6045 40.7674 28.1962C40.7674 27.7878 40.6381 27.4387 40.3785 27.1466C40.1189 26.8564 39.7543 26.7111 39.2863 26.7111V26.71Z" fill="white"/>
<path d="M22.8106 28.2702C22.8106 28.7599 22.6626 29.1301 22.3681 29.3803C22.0724 29.6308 21.727 29.7552 21.3291 29.7552C20.9312 29.7552 20.5737 29.6308 20.2827 29.3803C19.9933 29.1297 19.8477 28.7599 19.8477 28.2702V20.3389C19.8477 19.8693 19.9929 19.5065 20.2827 19.2524C20.5737 18.9968 20.9215 18.8688 21.3291 18.8688C21.7368 18.8688 22.0724 18.9972 22.3681 19.2524C22.6626 19.5065 22.8106 19.8693 22.8106 20.3389V28.2702Z" fill="white"/>
<path d="M76.4426 26.9372H72.8844V25.8955H75.8469C76.2746 25.8955 76.6074 25.7608 76.8475 25.4907C77.086 25.2205 77.2066 24.9013 77.2066 24.5338C77.2066 24.1662 77.086 23.847 76.8475 23.5761C76.6074 23.3063 76.2746 23.1705 75.8469 23.1705H72.8844V22.1448H76.4426C76.9105 22.1448 77.2751 21.996 77.5348 21.6999C77.7944 21.4047 77.9236 21.0521 77.9236 20.6433C77.9236 20.2345 77.7944 19.8831 77.5348 19.5882C77.2751 19.2918 76.9105 19.1433 76.4426 19.1433H71.4033C70.4262 19.1433 69.9375 19.6444 69.9375 20.6437V28.4231C69.9375 29.4235 70.4258 29.9234 71.4033 29.9234H76.4426C76.9105 29.9234 77.2751 29.7754 77.5348 29.4801C77.7944 29.1832 77.9236 28.8318 77.9236 28.4234C77.9236 28.0151 77.7944 27.666 77.5348 27.3739C77.2751 27.0837 76.9105 26.9384 76.4426 26.9384V26.9372Z" fill="white"/>
<path d="M85.3449 26.9372H81.7867V25.8955H84.7493C85.1769 25.8955 85.5098 25.7608 85.7498 25.4907C85.9883 25.2205 86.1089 24.9013 86.1089 24.5338C86.1089 24.1662 85.9883 23.847 85.7498 23.5761C85.5098 23.3063 85.1769 23.1705 84.7493 23.1705H81.7867V22.1448H85.3449C85.8129 22.1448 86.1775 21.996 86.4371 21.6999C86.6967 21.4047 86.826 21.0521 86.826 20.6433C86.826 20.2345 86.6967 19.8831 86.4371 19.5882C86.1775 19.2918 85.8129 19.1433 85.3449 19.1433H80.3056C79.3286 19.1433 78.8398 19.6444 78.8398 20.6437V28.4231C78.8398 29.4235 79.3282 29.9234 80.3056 29.9234H85.3449C85.8129 29.9234 86.1775 29.7754 86.4371 29.4801C86.6967 29.1832 86.826 28.8318 86.826 28.4234C86.826 28.0151 86.6967 27.666 86.4371 27.3739C86.1775 27.0837 85.8129 26.9384 85.3449 26.9384V26.9372Z" fill="white"/>
<path d="M74.1355 4.0333C52.4262 -1.90331 33.247 3.22128 33.247 3.22128C42.4569 3.52559 61.8213 6.29423 61.8213 6.29423C31.4162 2.97391 10.3988 5.73312 10.3988 5.73312L17.1545 6.97L6.07232 6.29462L7.95088 10.4332L12.1446 11.1561L0 12.9443L4.17497 11.6313L4.00422 8.37768L2.40998 5.56153C56.9426 -6.00071 74.1355 4.03291 74.1355 4.03291V4.0333ZM27.6697 7.92337C29.3 9.19677 31.2412 10.0076 33.2909 10.2715L41.1916 11.2889L33.5736 9.36875C32.6568 9.13748 31.8807 8.52728 31.4385 7.68974L31.2224 7.28059C61.0792 7.28059 71.3516 9.00593 71.3516 9.00593C48.3264 5.35263 25.8076 6.46975 25.8076 6.46975L27.6693 7.92377L27.6697 7.92337ZM91.2905 8.39692H87.5459C88.7344 9.07308 90.0702 9.44493 91.4361 9.47791C92.6544 9.50736 94.1398 9.58196 95.0354 9.76691C96.7562 10.1223 99.9948 12.1515 99.9948 12.1515L96.6547 12.9443H103.689C90.1775 4.43892 75.8057 4.33761 68.3671 5.50459C80.5627 4.0333 91.2908 8.39692 91.2908 8.39692H91.2905Z" fill="white"/>
<path d="M19.8281 15.7041C25.1642 15.4674 30.5003 15.3437 35.8364 15.2592C38.5045 15.2066 41.1725 15.1948 43.8405 15.1638L51.8447 15.1324L59.8488 15.1627C62.5169 15.1945 65.1849 15.2047 67.853 15.2581C73.1891 15.3417 78.5252 15.4662 83.8613 15.7045C78.5252 15.9429 73.1891 16.0673 67.853 16.151C65.1849 16.2044 62.5169 16.2142 59.8488 16.2464L51.8447 16.2766L43.8405 16.2452C41.1725 16.2142 38.5045 16.2024 35.8364 16.1498C30.5003 16.0658 25.1642 15.9417 19.8281 15.7049V15.7041Z" fill="white"/>
<path d="M22.8948 14.2773C22.8627 14.2937 22.8294 14.3098 22.7957 14.3244H23.6381C23.4235 12.1353 21.5774 10.4198 19.3386 10.4198C17.0997 10.4198 15.2537 12.1353 15.0391 14.3244H15.8814C15.8477 14.3098 15.8145 14.2937 15.7823 14.2773C15.6739 14.2215 15.6163 14.1002 15.6418 13.9804C15.8007 13.2312 16.1818 12.5547 16.7418 12.0226C16.7947 11.9727 16.8718 11.9413 16.9384 11.9488C17.0108 11.9519 17.0794 11.9841 17.1283 12.0383C17.906 12.9033 18.0972 13.6934 17.6394 14.1524C17.572 14.2199 17.489 14.2773 17.3946 14.3244H18.3458C18.5119 13.9392 18.8945 13.669 19.3382 13.669C19.7819 13.669 20.1653 13.9392 20.3305 14.3244H21.2817C21.1877 14.2773 21.1051 14.2199 21.0374 14.1524C20.5796 13.6934 20.7703 12.9033 21.548 12.0383C21.5966 11.9841 21.6651 11.9519 21.7384 11.9488C21.801 11.9421 21.8813 11.9727 21.9342 12.0226C22.4942 12.5543 22.8752 13.2312 23.0342 13.9804C23.0596 14.0998 23.0021 14.2215 22.8936 14.2773H22.8948ZM19.339 13.1487C18.6431 13.1487 18.0682 12.4141 18.0004 11.4399C17.9922 11.315 18.0693 11.2008 18.1876 11.1635C18.9356 10.9239 19.7423 10.9239 20.4907 11.1635C20.6093 11.2008 20.6861 11.3154 20.6779 11.4399C20.6105 12.4141 20.0348 13.1487 19.3393 13.1487H19.339Z" fill="white"/>
<path d="M19.3378 8.25333C15.9073 8.25333 13.0912 10.9399 12.8711 14.3238H14.4959C14.7124 11.8359 16.8009 9.87776 19.3378 9.87776C21.8746 9.87776 23.9627 11.8359 24.1796 14.3238H25.8044C25.5847 10.9399 22.7683 8.25333 19.3378 8.25333Z" fill="white"/>
<path d="M85.5003 14.2773C85.4681 14.2937 85.4349 14.3098 85.4012 14.3244H86.2435C86.0289 12.1353 84.1829 10.4198 81.944 10.4198C79.7052 10.4198 77.8591 12.1353 77.6445 14.3244H78.4869C78.4532 14.3098 78.4199 14.2937 78.3878 14.2773C78.2793 14.2215 78.2218 14.1002 78.2472 13.9804C78.4062 13.2312 78.7873 12.5547 79.3473 12.0226C79.4001 11.9727 79.4773 11.9413 79.5438 11.9488C79.6163 11.9519 79.6848 11.9841 79.7338 12.0383C80.5115 12.9033 80.7026 13.6934 80.2448 14.1524C80.1775 14.2199 80.0945 14.2773 80.0001 14.3244H80.9513C81.1173 13.9392 81.4999 13.669 81.9436 13.669C82.3873 13.669 82.7707 13.9392 82.936 14.3244H83.8872C83.7932 14.2773 83.7106 14.2199 83.6428 14.1524C83.185 13.6934 83.3758 12.9033 84.1535 12.0383C84.2021 11.9841 84.2706 11.9519 84.3438 11.9488C84.4065 11.9421 84.4868 11.9727 84.5396 12.0226C85.0996 12.5543 85.4807 13.2312 85.6397 13.9804C85.6651 14.0998 85.6076 14.2215 85.4991 14.2773H85.5003ZM81.944 13.1487C81.2481 13.1487 80.6733 12.4141 80.6055 11.4399C80.5973 11.315 80.6744 11.2008 80.7927 11.1635C81.5407 10.9239 82.3474 10.9239 83.0958 11.1635C83.2144 11.2008 83.2912 11.3154 83.283 11.4399C83.2156 12.4141 82.6399 13.1487 81.9444 13.1487H81.944Z" fill="white"/>
<path d="M81.9393 8.25333C78.5088 8.25333 75.6927 10.9399 75.4727 14.3238H77.0975C77.314 11.8359 79.4025 9.87776 81.9393 9.87776C84.4762 9.87776 86.5643 11.8359 86.7812 14.3238H88.406C88.1863 10.9399 85.3698 8.25333 81.9393 8.25333Z" fill="white"/>
</g>
<defs>
<clipPath id="clip0_75762_2781">
<rect width="103.645" height="30" fill="white"/>
</clipPath>
</defs>
</svg>
