<svg width="16" height="12" viewBox="0 0 16 12" fill="none" xmlns="http://www.w3.org/2000/svg">
<path d="M14.2222 0H4V11.5556H14.2222C14.6937 11.5556 15.1459 11.3683 15.4793 11.0349C15.8127 10.7015 16 10.2493 16 9.77778V1.77778C16 1.30628 15.8127 0.854097 15.4793 0.520699C15.1459 0.187301 14.6937 0 14.2222 0ZM10 9.09867C9.11594 9.09867 8.2681 8.74748 7.64298 8.12236C7.01786 7.49723 6.66667 6.64939 6.66667 5.76533C6.66667 4.112 7.87156 2.74356 9.45022 2.48089C8.85323 2.75751 8.36864 3.22975 8.07669 3.8194C7.78474 4.40905 7.70296 5.08073 7.84489 5.72321C7.98681 6.36568 8.34393 6.94041 8.8571 7.3522C9.37027 7.764 10.0087 7.98816 10.6667 7.98756C11.217 7.98708 11.7557 7.82942 12.2195 7.53313C12.6832 7.23685 13.0527 6.81427 13.2844 6.31511C13.0218 7.89422 11.6533 9.09867 10 9.09867ZM12.2711 4.46578L11.732 5.36444L11.6396 4.32044L10.6182 4.08578L11.5827 3.67511L11.4907 2.63111L12.1787 3.42178L13.1431 3.01111L12.6044 3.91022L13.2924 4.70089L12.2711 4.46578Z" fill="#004600"/>
<path d="M1.77778 0C1.30628 0 0.854097 0.187301 0.520699 0.520699C0.187301 0.854097 0 1.30628 0 1.77778L0 9.77778C0 10.2493 0.187301 10.7015 0.520699 11.0349C0.854097 11.3683 1.30628 11.5556 1.77778 11.5556H4V0H1.77778Z" fill="#EEEEEE"/>
<path d="M13.144 3.01086L12.1796 3.42153L11.4916 2.63086L11.5836 3.67486L10.6191 4.08553L11.6405 4.32019L11.7329 5.36419L12.272 4.46553L13.2934 4.70064L12.6054 3.90997L13.144 3.01086Z" fill="white"/>
<path d="M10.666 7.98714C10.0081 7.98774 9.36962 7.76358 8.85645 7.35178C8.34328 6.93999 7.98616 6.36526 7.84423 5.72279C7.70231 5.08031 7.78409 4.40863 8.07604 3.81898C8.36799 3.22933 8.85258 2.75709 9.44957 2.48047C7.8709 2.74358 6.66602 4.11202 6.66602 5.76491C6.66602 6.64897 7.01721 7.49681 7.64233 8.12194C8.26745 8.74706 9.11529 9.09825 9.99935 9.09825C11.6527 9.09825 13.0211 7.89336 13.2838 6.31469C13.0525 6.81418 12.6831 7.23706 12.2193 7.53341C11.7554 7.82976 11.2165 7.9872 10.666 7.98714Z" fill="white"/>
</svg>
