<svg width="29" height="29" viewBox="0 0 29 29" fill="none" xmlns="http://www.w3.org/2000/svg">
<path d="M10.1376 28.1376C11.52 28.5552 12.9168 28.8 14.4 28.8C18.2191 28.8 21.8818 27.2829 24.5823 24.5823C27.2829 21.8818 28.8 18.2191 28.8 14.4C28.8 12.509 28.4275 10.6364 27.7039 8.88936C26.9802 7.14227 25.9195 5.55483 24.5823 4.21766C23.2452 2.8805 21.6577 1.8198 19.9106 1.09613C18.1636 0.372467 16.291 0 14.4 0C12.509 0 10.6364 0.372467 8.88936 1.09613C7.14227 1.8198 5.55483 2.8805 4.21766 4.21766C1.51714 6.91819 0 10.5809 0 14.4C0 20.52 3.8448 25.776 9.2736 27.8496C9.144 26.7264 9.0144 24.8688 9.2736 23.5872L10.9296 16.4736C10.9296 16.4736 10.512 15.6384 10.512 14.3136C10.512 12.3264 11.7504 10.8432 13.1616 10.8432C14.4 10.8432 14.976 11.7504 14.976 12.9168C14.976 14.1552 14.1552 15.9264 13.7376 17.6256C13.4928 19.0368 14.4864 20.2752 15.9264 20.2752C18.4896 20.2752 20.4768 17.5392 20.4768 13.68C20.4768 10.224 18 7.8624 14.4432 7.8624C10.3824 7.8624 7.992 10.8864 7.992 14.0688C7.992 15.3072 8.3952 16.56 9.0576 17.3808C9.1872 17.4672 9.1872 17.5824 9.144 17.7984L8.7264 19.368C8.7264 19.6128 8.568 19.6992 8.3232 19.5264C6.48 18.72 5.4144 16.0992 5.4144 13.9824C5.4144 9.432 8.64 5.2992 14.8608 5.2992C19.8144 5.2992 23.6736 8.856 23.6736 13.5792C23.6736 18.5328 20.6064 22.5072 16.2144 22.5072C14.8176 22.5072 13.4496 21.7584 12.96 20.88L11.9952 24.2928C11.664 25.5312 10.7568 27.1872 10.1376 28.1808V28.1376Z" fill="#C2C9C8"/>
</svg>
