<svg width="10" height="10" viewBox="0 0 10 10" fill="none" xmlns="http://www.w3.org/2000/svg">
<path d="M9.16797 1.92383C9.16797 1.62435 9.06055 1.36719 8.8457 1.15234C8.63086 0.937501 8.3737 0.830079 8.07422 0.830079C7.77474 0.830079 7.51758 0.937501 7.30273 1.15234C7.08789 1.36719 6.98047 1.62435 6.98047 1.92383C6.98047 2.16471 7.05371 2.38119 7.20019 2.57324C7.34668 2.7653 7.5306 2.89714 7.75195 2.96875V4.67773H5.35937V2.96875C5.58073 2.89714 5.76302 2.7653 5.90625 2.57324C6.04948 2.38119 6.12109 2.16471 6.12109 1.92383C6.12109 1.62435 6.0153 1.36719 5.80371 1.15234C5.59212 0.937501 5.33333 0.830079 5.02734 0.830079C4.72786 0.830079 4.47233 0.937501 4.26074 1.15234C4.04915 1.36719 3.94336 1.62435 3.94336 1.92383C3.94336 2.16471 4.01497 2.38119 4.1582 2.57324C4.30143 2.7653 4.48372 2.89714 4.70508 2.96875V4.67773H2.24414V2.96875C2.46549 2.89714 2.64941 2.7653 2.7959 2.57324C2.94238 2.38119 3.01562 2.16471 3.01562 1.92383C3.01562 1.62435 2.9082 1.36719 2.69336 1.15234C2.47852 0.937501 2.22135 0.830079 1.92187 0.830079C1.6224 0.830079 1.36523 0.937501 1.15039 1.15234C0.935547 1.36719 0.828125 1.62435 0.828125 1.92383C0.828125 2.16471 0.901367 2.38119 1.04785 2.57324C1.19434 2.7653 1.37826 2.89714 1.59961 2.96875V7.03125C1.37826 7.10286 1.19434 7.2347 1.04785 7.42676C0.901367 7.61882 0.828125 7.83529 0.828125 8.07617C0.828125 8.37565 0.935547 8.63281 1.15039 8.84766C1.36523 9.0625 1.6224 9.16992 1.92187 9.16992C2.22135 9.16992 2.47852 9.0625 2.69336 8.84766C2.9082 8.63281 3.01562 8.37565 3.01562 8.07617C3.01562 7.83529 2.94238 7.61882 2.7959 7.42676C2.64941 7.2347 2.46549 7.10286 2.24414 7.03125V5.32227H4.70508V7.03125C4.48372 7.10286 4.30143 7.2347 4.1582 7.42676C4.01497 7.61882 3.94336 7.83529 3.94336 8.07617C3.94336 8.37565 4.04915 8.63281 4.26074 8.84766C4.47233 9.0625 4.72786 9.16992 5.02734 9.16992C5.33333 9.16992 5.59212 9.0625 5.80371 8.84766C6.0153 8.63281 6.12109 8.37565 6.12109 8.07617C6.12109 7.83529 6.04948 7.61882 5.90625 7.42676C5.76302 7.2347 5.58073 7.10286 5.35937 7.03125V5.32227H8.39648V2.96875C8.61784 2.89714 8.80176 2.7653 8.94824 2.57324C9.09473 2.38119 9.16797 2.16471 9.16797 1.92383ZM5.02734 1.48438C5.15104 1.48438 5.25521 1.52669 5.33984 1.61133C5.42448 1.69596 5.4668 1.80013 5.4668 1.92383C5.4668 2.04753 5.42448 2.15169 5.33984 2.23633C5.25521 2.32096 5.15104 2.36328 5.02734 2.36328C4.91016 2.36328 4.80762 2.32096 4.71973 2.23633C4.63184 2.15169 4.58789 2.04753 4.58789 1.92383C4.58789 1.80013 4.63184 1.69596 4.71973 1.61133C4.80762 1.52669 4.91016 1.48438 5.02734 1.48438ZM1.92187 1.48438C2.04557 1.48438 2.14974 1.52669 2.23437 1.61133C2.31901 1.69596 2.36133 1.80013 2.36133 1.92383C2.36133 2.04753 2.31901 2.15169 2.23437 2.23633C2.14974 2.32096 2.04557 2.36328 1.92187 2.36328C1.79818 2.36328 1.69401 2.32096 1.60937 2.23633C1.52474 2.15169 1.48242 2.04753 1.48242 1.92383C1.48242 1.80013 1.52474 1.69596 1.60937 1.61133C1.69401 1.52669 1.79818 1.48438 1.92187 1.48438ZM1.92187 8.51563C1.79818 8.51563 1.69401 8.47331 1.60937 8.38867C1.52474 8.30404 1.48242 8.19987 1.48242 8.07617C1.48242 7.95247 1.52474 7.84831 1.60937 7.76367C1.69401 7.67904 1.79818 7.63672 1.92187 7.63672C2.04557 7.63672 2.14974 7.67904 2.23437 7.76367C2.31901 7.84831 2.36133 7.95247 2.36133 8.07617C2.36133 8.19987 2.31901 8.30404 2.23437 8.38867C2.14974 8.47331 2.04557 8.51563 1.92187 8.51563ZM5.02734 8.51563C4.91016 8.51563 4.80762 8.47331 4.71973 8.38867C4.63184 8.30404 4.58789 8.19987 4.58789 8.07617C4.58789 7.95247 4.63184 7.84831 4.71973 7.76367C4.80762 7.67904 4.91016 7.63672 5.02734 7.63672C5.15104 7.63672 5.25521 7.67904 5.33984 7.76367C5.42448 7.84831 5.4668 7.95247 5.4668 8.07617C5.4668 8.19987 5.42448 8.30404 5.33984 8.38867C5.25521 8.47331 5.15104 8.51563 5.02734 8.51563ZM8.07422 2.36328C7.95052 2.36328 7.84635 2.32096 7.76172 2.23633C7.67708 2.15169 7.63477 2.04753 7.63477 1.92383C7.63477 1.80013 7.67708 1.69596 7.76172 1.61133C7.84635 1.52669 7.95052 1.48438 8.07422 1.48438C8.19792 1.48438 8.30208 1.52669 8.38672 1.61133C8.47135 1.69596 8.51367 1.80013 8.51367 1.92383C8.51367 2.04753 8.47135 2.15169 8.38672 2.23633C8.30208 2.32096 8.19792 2.36328 8.07422 2.36328Z" fill="currentColor"/>
</svg>
