<svg width="29" height="29" viewBox="0 0 29 29" fill="none" xmlns="http://www.w3.org/2000/svg">
<rect width="28.8" height="28.8" rx="14.4" fill="#C2C9C8"/>
<path fill-rule="evenodd" clip-rule="evenodd" d="M19.4066 4.40503C19.5478 5.12902 19.8356 5.81647 20.2523 6.42511C20.6691 7.03374 21.2059 7.5507 21.8298 7.94419V7.94643C22.6972 8.49823 23.7303 8.81947 24.8384 8.81947V12.7011C22.8615 12.7052 20.9316 12.0985 19.3125 10.964V18.8527C19.3125 22.7925 16.0331 25.997 12.0025 25.997C10.5071 25.9996 9.04618 25.548 7.81308 24.702L7.81084 24.7009C5.92709 23.4082 4.69141 21.2692 4.69141 18.8527C4.69141 14.9128 7.97089 11.7083 12.0025 11.7083C12.3372 11.7083 12.6652 11.7352 12.9875 11.7777V15.7422C12.6685 15.6432 12.3365 15.5922 12.0025 15.5911C10.1613 15.5911 8.66373 17.0551 8.66373 18.8538C8.66373 20.1074 9.39126 21.1953 10.4546 21.7415C10.9168 21.98 11.4429 22.1165 12.0025 22.1165C13.8012 22.1165 15.2675 20.7185 15.3346 18.9769L15.3413 3.41895H19.3125C19.3125 3.75585 19.3461 4.08604 19.4066 4.40503Z" fill="#29302F"/>
</svg>
