<svg width="20" height="20" viewBox="0 0 20 20" fill="none" xmlns="http://www.w3.org/2000/svg">
<path d="M10.0013 1.66699C8.90695 1.66699 7.82332 1.88254 6.81227 2.30133C5.80123 2.72012 4.88257 3.33395 4.10875 4.10777C2.54594 5.67057 1.66797 7.79019 1.66797 10.0003C1.66797 12.2105 2.54594 14.3301 4.10875 15.8929C4.88257 16.6667 5.80123 17.2805 6.81227 17.6993C7.82332 18.1181 8.90695 18.3337 10.0013 18.3337C12.2114 18.3337 14.3311 17.4557 15.8939 15.8929C17.4567 14.3301 18.3346 12.2105 18.3346 10.0003C18.3346 8.90598 18.1191 7.82234 17.7003 6.8113C17.2815 5.80025 16.6677 4.88159 15.8939 4.10777C15.12 3.33395 14.2014 2.72012 13.1903 2.30133C12.1793 1.88254 11.0957 1.66699 10.0013 1.66699ZM5.89297 15.2337C6.2513 14.4837 8.43464 13.7503 10.0013 13.7503C11.568 13.7503 13.7513 14.4837 14.1096 15.2337C12.9763 16.1337 11.5513 16.667 10.0013 16.667C8.4513 16.667 7.0263 16.1337 5.89297 15.2337ZM15.3013 14.0253C14.1096 12.5753 11.218 12.0837 10.0013 12.0837C8.78464 12.0837 5.89297 12.5753 4.7013 14.0253C3.8513 12.917 3.33464 11.517 3.33464 10.0003C3.33464 6.32533 6.3263 3.33366 10.0013 3.33366C13.6763 3.33366 16.668 6.32533 16.668 10.0003C16.668 11.517 16.1513 12.917 15.3013 14.0253ZM10.0013 5.00033C8.38463 5.00033 7.08464 6.30033 7.08464 7.91699C7.08464 9.53366 8.38463 10.8337 10.0013 10.8337C11.618 10.8337 12.918 9.53366 12.918 7.91699C12.918 6.30033 11.618 5.00033 10.0013 5.00033ZM10.0013 9.16699C9.66978 9.16699 9.35184 9.0353 9.11742 8.80088C8.883 8.56646 8.7513 8.24851 8.7513 7.91699C8.7513 7.58547 8.883 7.26753 9.11742 7.03311C9.35184 6.79869 9.66978 6.66699 10.0013 6.66699C10.3328 6.66699 10.6508 6.79869 10.8852 7.03311C11.1196 7.26753 11.2513 7.58547 11.2513 7.91699C11.2513 8.24851 11.1196 8.56646 10.8852 8.80088C10.6508 9.0353 10.3328 9.16699 10.0013 9.16699Z" fill="white"/>
</svg>
