<svg width="29" height="29" viewBox="0 0 29 29" fill="none" xmlns="http://www.w3.org/2000/svg">
<rect width="28.8" height="28.8" rx="14.4" fill="#C2C9C8"/>
<path fill-rule="evenodd" clip-rule="evenodd" d="M12.1228 17.1043L12.1221 11.3446L17.6218 14.2343L12.1228 17.1043ZM24.1984 10.3465C24.1984 10.3465 23.9993 8.93394 23.3893 8.31191C22.6152 7.49514 21.7475 7.49129 21.35 7.44389C18.5015 7.23633 14.2289 7.23633 14.2289 7.23633H14.2199C14.2199 7.23633 9.94731 7.23633 7.09887 7.44389C6.70067 7.49129 5.83367 7.49514 5.0589 8.31191C4.44889 8.93394 4.25043 10.3465 4.25043 10.3465C4.25043 10.3465 4.04688 12.0056 4.04688 13.6642V15.2196C4.04688 16.8788 4.25043 18.5373 4.25043 18.5373C4.25043 18.5373 4.44889 19.9498 5.0589 20.5719C5.83367 21.3887 6.85079 21.363 7.30369 21.4482C8.9321 21.6058 14.2244 21.6545 14.2244 21.6545C14.2244 21.6545 18.5015 21.6481 21.35 21.4406C21.7475 21.3925 22.6152 21.3887 23.3893 20.5719C23.9993 19.9498 24.1984 18.5373 24.1984 18.5373C24.1984 18.5373 24.402 16.8788 24.402 15.2196V13.6642C24.402 12.0056 24.1984 10.3465 24.1984 10.3465Z" fill="#29302F"/>
</svg>
